<svg version="1.1" xmlns="http://www.w3.org/2000/svg" width="300" height="164" viewBox="0 0 75 41">
            <path fill="#00020E" fill-rule="evenodd" clip-rule="evenodd" d="M11.4833 30.8864V39.6495V40.0012H13.1923V36.8257L14.7758 35.4642C15.0949 35.9164 15.4271 36.391 15.7596 36.8661C16.4852 37.9031 17.2126 38.9421 17.9555 39.9623L17.9838 40.0012H20.0594L19.9525 39.8489C19.0407 38.5489 18.1261 37.2507 17.2119 35.9529L17.181 35.9092L16.0341 34.2807L16.9343 33.4693C17.7871 32.7011 18.6375 31.9349 19.6097 31.0545L19.7954 30.8864H17.4261L17.4 30.9087C16.4188 31.7407 15.4353 32.6302 14.4572 33.5149L14.4522 33.5193C14.043 33.8897 13.6342 34.2596 13.1923 34.6542V30.8864H11.4833ZM25.2175 35.5778V39.6495V40.0012H26.926V35.5921L28.0884 34.2746C29.0336 33.2035 29.9788 32.1322 30.9252 31.0627L31.0672 30.9021H28.8485L28.8205 30.9335C28.187 31.6482 27.5619 32.3595 26.9374 33.0703L26.8779 33.1379L26.0806 34.0451L25.235 33.0897C24.5659 32.3331 23.8991 31.5793 23.325 30.9335L23.297 30.9021H21.0915L21.2335 31.0627C22.0145 31.9457 22.9703 33.0296 23.9333 34.1215L24.07 34.2765L25.2175 35.5778ZM37.9286 34.6356C37.8781 34.6385 37.8224 34.6399 37.762 34.6399H36.179C36.4915 35.2025 36.8053 35.7644 37.1197 36.3257H37.1251L37.7554 37.45L37.7705 37.4768C38.2305 38.2964 38.691 39.1169 39.147 39.9515L39.1742 40.0012H41.0917L41.0115 39.8574C40.5217 38.9785 40.0333 38.0982 39.5457 37.2179L38.9713 36.1827L39.0437 36.1561C39.1077 36.1313 39.1707 36.1043 39.2317 36.0754C39.2932 36.0463 39.3527 36.0151 39.409 35.9827C39.4756 35.9442 39.5416 35.9022 39.6065 35.8561C39.6725 35.8097 39.7344 35.7619 39.7915 35.7125C39.8506 35.6628 39.907 35.6101 39.9609 35.5555C40.0156 35.5001 40.068 35.4425 40.1169 35.3833L40.1255 35.3738C40.1762 35.3114 40.2243 35.2472 40.2691 35.1811C40.3129 35.1168 40.3548 35.0492 40.3938 34.9788C40.4318 34.9104 40.4669 34.8405 40.4983 34.7693C40.5294 34.6988 40.5584 34.625 40.5843 34.5487C40.6104 34.4721 40.6331 34.3953 40.652 34.3185C40.6707 34.2425 40.6868 34.1635 40.6996 34.0819C40.7126 33.9997 40.7225 33.9174 40.7288 33.8364C40.7703 33.2984 40.6845 32.7147 40.4293 32.2381C40.3881 32.161 40.3413 32.0852 40.2902 32.0106C40.2403 31.9384 40.1858 31.869 40.1277 31.8029C40.0693 31.7361 40.0061 31.6721 39.9389 31.6109C39.8726 31.5511 39.803 31.4952 39.7309 31.443C39.6593 31.3915 39.5833 31.3425 39.5038 31.2969C39.4277 31.253 39.3465 31.2122 39.2613 31.1744C39.1776 31.1373 39.0915 31.1038 39.0034 31.0748C38.9149 31.046 38.824 31.0203 38.7308 30.9988C38.6381 30.9776 38.5426 30.9591 38.4442 30.9451C38.3458 30.9308 38.245 30.9199 38.1423 30.9128C38.0383 30.9055 37.9333 30.9021 37.8279 30.9021H32.7775V40.0012H34.4861V32.573H37.8126C37.8677 32.573 37.9188 32.5746 37.966 32.5778C39.3149 32.6632 39.3569 34.4645 38.0818 34.6212C38.0313 34.6279 37.9798 34.6325 37.9286 34.6356ZM42.7668 35.9657C42.9809 38.5713 44.9519 40.2193 47.3324 40.2193C47.4952 40.2193 47.6559 40.2122 47.8135 40.1982C49.6625 40.0339 51.2383 38.7957 51.7564 36.9021C51.7973 36.7524 51.8315 36.5992 51.8585 36.4437C51.8854 36.2877 51.9058 36.1282 51.9194 35.9657C51.9327 35.8036 51.9396 35.6382 51.9396 35.47C51.9396 35.3023 51.9327 35.137 51.9194 34.975C51.9057 34.8125 51.8854 34.6529 51.8584 34.4972C51.8315 34.3421 51.7973 34.189 51.7563 34.0387C51.3475 32.5402 50.1821 31.3318 48.7192 30.9053C48.5768 30.864 48.4286 30.8287 48.2753 30.8004C48.1207 30.7716 47.966 30.7506 47.8113 30.7366C47.6543 30.7227 47.4942 30.7155 47.3324 30.7155C47.171 30.7155 47.0116 30.7227 46.8551 30.7366C46.7011 30.7504 46.5468 30.7716 46.3931 30.8002C44.8941 31.0784 43.6258 32.1375 43.0722 33.5935C43.018 33.7363 42.9701 33.8829 42.9294 34.0326C42.8885 34.1834 42.8546 34.3369 42.8277 34.4922C42.8006 34.6486 42.7803 34.809 42.7668 34.9719C42.7535 35.1349 42.7465 35.3012 42.7465 35.47C42.7465 35.6382 42.7533 35.8035 42.7668 35.9657ZM50.1348 36.12C49.9391 37.2976 49.0956 38.2593 47.9334 38.4795C46.2272 38.804 44.6501 37.7327 44.499 35.8039C44.4904 35.6963 44.486 35.5851 44.486 35.47C44.486 35.3554 44.4904 35.2442 44.499 35.1369C44.5073 35.0284 44.5204 34.9229 44.5371 34.8213C44.554 34.7199 44.5753 34.6201 44.6008 34.5231C44.8203 33.685 45.4154 32.9498 46.2039 32.6169C46.2881 32.5812 46.3754 32.5496 46.4652 32.5224C46.5541 32.4956 46.646 32.473 46.7394 32.455C46.8312 32.4373 46.9277 32.4239 47.0285 32.4143C47.1249 32.4057 47.2274 32.4011 47.3353 32.4011C49.0653 32.4011 50.1858 33.7281 50.1858 35.47C50.1858 35.5851 50.1814 35.6965 50.1729 35.8041C50.1645 35.9125 50.1515 36.0182 50.1348 36.12ZM59.2329 34.6399H58.2459H57.6542L59.1757 37.3687L60.6462 40.0012H62.5625L62.4825 39.8574C61.9194 38.8477 61.3586 37.8364 60.7978 36.8251C60.679 36.611 60.5604 36.3968 60.4416 36.1827L60.5144 36.1561C60.5786 36.1313 60.6417 36.1041 60.7029 36.0753C60.7643 36.0461 60.8235 36.0151 60.8801 35.9827C60.9459 35.9449 61.0114 35.9027 61.0766 35.8569C61.1401 35.8122 61.2022 35.7641 61.2626 35.7126C62.2244 34.8941 62.5041 33.3643 61.8986 32.2366C61.8567 32.1588 61.8105 32.0833 61.7604 32.0106C61.7107 31.939 61.6563 31.8693 61.5973 31.8019C61.2307 31.383 60.7337 31.1216 60.2017 30.9988C60.109 30.9776 60.0131 30.9591 59.9151 30.9451C59.8165 30.9308 59.7159 30.9199 59.6132 30.9128C59.509 30.9055 59.4042 30.9021 59.2989 30.9021H54.2489V40.0012H55.9567V32.573H59.2833C59.3382 32.573 59.3892 32.5746 59.4359 32.5778C59.4851 32.5807 59.5317 32.5857 59.5755 32.5916C59.6208 32.5981 59.6634 32.606 59.7035 32.6152C60.7235 32.8456 60.8803 34.6399 59.2329 34.6399ZM65.8915 40.0012L65.9175 39.9484C66.5847 38.6097 67.2319 37.2495 67.878 35.8916C68.2612 35.0863 68.644 34.2818 69.0303 33.4832C70.0889 35.6541 71.1461 37.8255 72.1951 40.0012H74.0703C72.6039 36.9669 71.1374 33.9331 69.6652 30.9021H68.3924C67.7785 32.1819 67.1662 33.4624 66.5538 34.7429C65.7376 36.45 64.9214 38.1571 64.1015 39.8623L64.0348 40.0012H65.8915ZM1.84305 37.2067L1.55374 36.975L0.576172 38.4616L0.829701 38.6629C1.53946 39.2286 2.34829 39.6713 3.21402 39.9263C3.30999 39.9545 3.40522 39.9807 3.49886 40.0038C3.59673 40.0283 3.69403 40.0501 3.79019 40.0696C4.7624 40.2666 5.92343 40.292 6.87779 40.015C6.99622 39.9809 7.11163 39.9418 7.22327 39.899C7.84586 39.659 8.44961 39.2418 8.83351 38.6777C8.89269 38.5903 8.94659 38.4997 8.99431 38.4071C9.04236 38.3135 9.08464 38.2175 9.12098 38.1186C9.15749 38.0183 9.18799 37.917 9.21156 37.8143C9.40961 36.9667 9.21436 36.0903 8.63777 35.4441C8.57612 35.3743 8.51109 35.3078 8.44343 35.2446C8.37634 35.1825 8.30472 35.1224 8.22908 35.0643C8.15455 35.0075 8.07618 34.9529 7.99529 34.9018C7.9139 34.8504 7.8307 34.8025 7.74592 34.7586C7.65974 34.7139 7.57169 34.673 7.48227 34.6359C7.39579 34.5999 7.30289 34.5657 7.20453 34.5339C7.10812 34.5022 7.00905 34.4739 6.90848 34.449C6.8059 34.4239 6.7025 34.4019 6.59867 34.3834C6.38732 34.3456 6.05103 34.3219 5.66436 34.2947C4.70583 34.2273 3.43777 34.1381 2.99634 33.7575L2.9569 33.7177L2.91149 33.6632C2.81961 33.5303 2.78859 33.4217 2.8103 33.2601C2.81413 33.2325 2.81991 33.2059 2.82753 33.1808C2.83539 33.1542 2.84495 33.1284 2.85614 33.1041C2.86616 33.0825 2.87747 33.0617 2.88979 33.0419L2.89804 33.0304C3.57213 31.974 5.85796 32.4695 6.76665 32.9587C6.83048 32.9932 6.89357 33.029 6.9554 33.0655C7.01892 33.1033 7.08226 33.1425 7.14428 33.1826C7.20717 33.2236 7.26887 33.265 7.32829 33.307C7.38791 33.3489 7.44868 33.3939 7.50999 33.4411C7.57383 33.49 7.63415 33.5378 7.69089 33.5845L7.97824 33.8203C8.24579 33.4253 8.51464 33.0308 8.78332 32.6366C8.84637 32.544 8.90942 32.4515 8.97238 32.3591L8.70271 32.1548C8.62368 32.0954 8.54431 32.0373 8.4651 31.9819C8.38714 31.9275 8.30802 31.8743 8.228 31.8228C8.14617 31.7703 8.06372 31.7193 7.9809 31.6707C7.89598 31.6204 7.81353 31.5737 7.73428 31.5314C7.64925 31.4856 7.56321 31.4416 7.47762 31.3995C7.3883 31.3558 7.30453 31.3167 7.22691 31.2824C7.14842 31.2481 7.06315 31.2125 6.97094 31.1764C6.88169 31.1411 6.79439 31.1086 6.7091 31.0795C5.53172 30.6747 4.07215 30.5488 2.89635 30.9934C2.79791 31.0309 2.70086 31.0724 2.60657 31.1178C2.51389 31.1628 2.42249 31.2125 2.33375 31.2661C2.24381 31.3201 2.15859 31.3771 2.0784 31.4366C1.99639 31.4976 1.91758 31.5623 1.84293 31.6301C1.7684 31.6977 1.69977 31.7669 1.63707 31.8372C1.57323 31.9093 1.51392 31.9842 1.45983 32.0618C1.06719 32.6241 0.945547 33.3555 1.13945 34.0196C1.15398 34.0695 1.17071 34.1192 1.18926 34.1684C1.28342 34.4144 1.42933 34.6501 1.6055 34.8428C1.64412 34.8857 1.68191 34.9246 1.71833 34.9598C2.54364 35.7529 3.76429 35.8334 4.91635 35.9094C5.40263 35.9415 5.87668 35.9728 6.30364 36.0564C6.36036 36.0678 6.41779 36.0809 6.47527 36.0955C6.52866 36.1098 6.58307 36.1261 6.63766 36.1444C6.94722 36.2477 7.28553 36.4445 7.43301 36.7544C7.48799 36.8702 7.51573 36.9984 7.51573 37.1384C7.51573 37.1891 7.51283 37.2377 7.50742 37.2842C7.31938 38.8734 4.67165 38.5828 3.78371 38.2878C3.71427 38.2645 3.64144 38.2376 3.56516 38.2083C2.94608 37.9689 2.36657 37.6195 1.84305 37.2067ZM68.1004 23.9439C63.8416 21.6802 59.3396 19.8919 54.7184 18.6283C52.0672 17.9037 49.3411 17.3425 46.6146 16.9606L46.5833 12.4543C46.4318 10.5965 45.6687 7.98463 44.3512 6.64039L44.2913 6.57956L44.2316 6.64039C42.8793 8.02056 42.1221 10.6828 41.9907 12.5738C41.9227 13.7564 41.9457 15.0732 41.968 16.3476L41.9683 16.3634L41.9701 16.479C40.7124 16.3945 39.4426 16.3448 38.1942 16.3318L38.1089 16.3306V19.5388L38.1157 19.5726C39.136 22.0333 39.1836 23.1052 37.4961 25.3171C35.809 23.1059 35.8565 22.0333 36.877 19.5726L36.8838 16.3306L36.7981 16.3318C35.55 16.3448 34.2803 16.3945 33.0225 16.479L33.0242 16.3726C33.0468 15.0902 33.07 13.7641 33.0017 12.573C32.8704 10.6831 32.1134 8.02056 30.7608 6.64039L30.7009 6.57956L30.6411 6.64039C29.3236 7.98463 28.5604 10.5965 28.4088 12.461L28.3782 16.9606C25.6516 17.3425 22.9253 17.9037 20.2741 18.6283C15.6532 19.8919 11.1509 21.6802 6.8921 23.9439L6.80241 23.9914L7.88671 25.4413L7.94966 25.408C12.0165 23.2709 16.3162 21.5757 20.7288 20.3691C23.7152 19.553 26.839 18.9472 30.014 18.5684L30.0888 18.5597V13.4651C30.0888 12.4763 30.3 11.3346 30.7009 10.1496C31.1018 11.3354 31.3132 12.4771 31.3132 13.4651V18.4281L31.405 18.4201C32.8427 18.2932 34.0429 18.215 35.1728 18.1743V19.5464C33.6512 22.9407 34.9106 25.2761 37.4352 27.9416L37.4961 28.0063L37.5569 27.9416C40.0817 25.2761 41.3411 22.9407 39.8198 19.5464V18.1743C40.9497 18.215 42.1499 18.2932 43.5872 18.4201L43.6792 18.4281V13.4651C43.6792 12.4771 43.8906 11.3354 44.2913 10.1496C44.6924 11.3348 44.9038 12.4768 44.9038 13.4651V18.5597L44.9786 18.5684C48.1535 18.9472 51.277 19.553 54.2636 20.3691C58.6759 21.5757 62.9754 23.2709 67.0429 25.408L67.1055 25.4413L68.1899 23.9914L68.1004 23.9439ZM32.789 19.4913L32.9768 19.4799L32.9974 19.6711C33.2199 21.7884 31.8597 23.2306 30.8665 24.2835L30.7244 24.4344L30.5829 24.2828C29.5231 23.1546 28.4275 21.988 28.3949 20.1495L28.3919 19.9729L28.5621 19.946C28.9742 19.8815 29.4004 19.8205 29.8651 19.7586L30.0925 19.7279V19.9641C30.0635 20.7026 30.3113 21.134 30.7245 21.7306C31.1233 21.1439 31.3021 20.6984 31.3021 19.8046V19.604L31.4963 19.5875C31.9272 19.5504 32.3575 19.5192 32.789 19.4913ZM45.1311 19.7586L44.9039 19.7279V19.9675C44.9329 20.7026 44.6851 21.134 44.2717 21.7306C43.8732 21.1439 43.6943 20.6984 43.6943 19.8046V19.604L43.5004 19.5875C43.0692 19.5504 42.6388 19.5192 42.207 19.4913L42.0196 19.4799L41.9992 19.6711C41.7763 21.7883 43.1367 23.2304 44.1299 24.2833L44.1302 24.2835L44.272 24.4344L44.4135 24.2828C45.4732 23.1546 46.5689 21.988 46.6016 20.1495L46.6045 19.9729L46.4345 19.946C46.0221 19.8815 45.5961 19.8205 45.1311 19.7586ZM36.8001 14.8743L36.884 14.8735V6.74822C36.884 5.77058 37.0903 4.64376 37.4822 3.47392L37.5108 3.47442C37.9027 4.64376 38.1091 5.77058 38.1091 6.74822V14.8735L38.193 14.8743C38.6976 14.8795 39.2156 14.891 39.7328 14.9081L39.82 14.9111V6.74822C39.82 3.04222 37.5712 0.0361003 37.5485 0.0181331L37.5255 0H37.4963C37.3274 0 35.1729 3.17475 35.1729 6.74822V14.9111L35.2604 14.9081C35.7775 14.891 36.2954 14.8795 36.8001 14.8743Z"/>
</svg>